# xmcd CD database file
#
# Track frame offsets:
#	150
#	4638
#	25250
#	46530
#	51450
#	70971
#	94292
#	113045
#
# Disc length: 1976 seconds
#
# Revision: 2
# Processed by: cddbd v1.5.2PL0 Copyright (c) Steve Scherf et al.
# Submitted via: CDex 1.70beta3
#
DISCID=6007b608
DTITLE=COLTEMONIKHA - COLTEMONIKHA2
DYEAR=2007
DGENRE=Club-House
TTITLE0=preparation
TTITLE1=ドミノ
TTITLE2=darkness rabbit
TTITLE3=カニモテルコ
TTITLE4=sleeping girl
TTITLE5=SceneKiller
TTITLE6=NAMAIKI
TTITLE7=NAMAIKI(extended mix)
EXTD=YEAR: 2007
EXTT0=
EXTT1=
EXTT2=
EXTT3=
EXTT4=
EXTT5=
EXTT6=
EXTT7=
PLAYORDER=
